<svg xmlns="http://www.w3.org/2000/svg" xmlns:xlink="http://www.w3.org/1999/xlink" version="1.1" x="0px" y="0px" viewBox="0 0 100 125" style="enable-background:new 0 0 100 100;" xml:space="preserve"><path d="M78,40v12c0,9.925-8.075,18-18,18H36.828l4.586,4.586c0.781,0.781,0.781,2.047,0,2.828  C41.023,77.805,40.512,78,40,78s-1.023-0.195-1.414-0.586l-8-8c-0.781-0.781-0.781-2.047,0-2.828l8-8  c0.781-0.781,2.047-0.781,2.828,0s0.781,2.047,0,2.828L36.828,66H60c7.72,0,14-6.28,14-14V40c0-1.104,0.896-2,2-2S78,38.896,78,40z   M40,34h23.172l-4.586,4.586c-0.781,0.781-0.781,2.047,0,2.828C58.977,41.805,59.488,42,60,42s1.023-0.195,1.414-0.586l8-8  c0.781-0.781,0.781-2.047,0-2.828l-8-8c-0.781-0.781-2.047-0.781-2.828,0s-0.781,2.047,0,2.828L63.172,30H40  c-9.925,0-18,8.075-18,18v8c0,1.104,0.896,2,2,2s2-0.896,2-2v-8C26,40.28,32.28,34,40,34z"/></svg>