<svg xmlns="http://www.w3.org/2000/svg" xmlns:xlink="http://www.w3.org/1999/xlink" version="1.1" x="0px" y="0px" viewBox="0 0 100 125" style="enable-background:new 0 0 100 100;" xml:space="preserve"><path d="M33.824,38H24c-1.104,0-2-0.896-2-2s0.896-2,2-2h9.824c4.511,0,8.771,2.191,11.393,5.862l2.325,3.255  l-2.458,3.441l-3.122-4.371C40.089,39.565,37.047,38,33.824,38z M77.414,62.586l-8-8c-0.781-0.781-2.047-0.781-2.828,0  s-0.781,2.047,0,2.828L71.172,62h-4.996c-3.223,0-6.265-1.565-8.138-4.188l-3.122-4.371l-2.458,3.441l2.325,3.255  C57.405,63.809,61.665,66,66.176,66h4.996l-4.586,4.586c-0.781,0.781-0.781,2.047,0,2.828C66.977,73.805,67.488,74,68,74  s1.023-0.195,1.414-0.586l8-8C78.195,64.633,78.195,63.367,77.414,62.586z M77.414,34.586l-8-8c-0.781-0.781-2.047-0.781-2.828,0  s-0.781,2.047,0,2.828L71.172,34h-4.996c-4.511,0-8.771,2.191-11.394,5.863L41.963,57.812C40.089,60.435,37.047,62,33.824,62H24  c-1.104,0-2,0.896-2,2s0.896,2,2,2h9.824c4.511,0,8.771-2.191,11.394-5.863l12.819-17.948C59.911,39.565,62.953,38,66.176,38h4.996  l-4.586,4.586c-0.781,0.781-0.781,2.047,0,2.828C66.977,45.805,67.488,46,68,46s1.023-0.195,1.414-0.586l8-8  C78.195,36.633,78.195,35.367,77.414,34.586z"/><text x="0" y="115" fill="#000000" font-size="5px" font-weight="bold" font-family="'Helvetica Neue', Helvetica, Arial-Unicode, Arial, Sans-serif">Created by Tamzid Hasan</text><text x="0" y="120" fill="#000000" font-size="5px" font-weight="bold" font-family="'Helvetica Neue', Helvetica, Arial-Unicode, Arial, Sans-serif">from the Noun Project</text></svg>