<?xml version="1.0" encoding="UTF-8" standalone="no"?>
<!-- Created with Inkscape (http://www.inkscape.org/) -->

<svg
   xmlns:dc="http://purl.org/dc/elements/1.1/"
   xmlns:cc="http://creativecommons.org/ns#"
   xmlns:rdf="http://www.w3.org/1999/02/22-rdf-syntax-ns#"
   xmlns:svg="http://www.w3.org/2000/svg"
   xmlns="http://www.w3.org/2000/svg"
   xmlns:sodipodi="http://sodipodi.sourceforge.net/DTD/sodipodi-0.dtd"
   xmlns:inkscape="http://www.inkscape.org/namespaces/inkscape"
   width="64"
   height="55"
   viewBox="0 0 64 55"
   version="1.1"
   id="SVGRoot"
   inkscape:version="0.92.5 (2060ec1f9f, 2020-04-08)"
   sodipodi:docname="shuffle.svg">
  <defs
     id="defs3791" />
  <sodipodi:namedview
     id="base"
     pagecolor="#ffffff"
     bordercolor="#666666"
     borderopacity="1.0"
     inkscape:pageopacity="0.0"
     inkscape:pageshadow="2"
     inkscape:zoom="4"
     inkscape:cx="133.50884"
     inkscape:cy="-15.543237"
     inkscape:document-units="px"
     inkscape:current-layer="g3821"
     showgrid="false"
     inkscape:window-width="1848"
     inkscape:window-height="1016"
     inkscape:window-x="1992"
     inkscape:window-y="27"
     inkscape:window-maximized="1"
     inkscape:grid-bbox="true" />
  <metadata
     id="metadata3794">
    <rdf:RDF>
      <cc:Work
         rdf:about="">
        <dc:format>image/svg+xml</dc:format>
        <dc:type
           rdf:resource="http://purl.org/dc/dcmitype/StillImage" />
        <dc:title></dc:title>
      </cc:Work>
    </rdf:RDF>
  </metadata>
  <g
     inkscape:label="Layer 1"
     inkscape:groupmode="layer"
     id="layer1"
     transform="translate(0,-9)">
    <g
       id="g3821"
       transform="translate(-17.034875,-17.795125)">
      <path
         id="path3804"
         d="M 30.545373,40.660321 H 19.320142 c -1.261468,0 -2.285267,-1.023799 -2.285267,-2.285267 0,-1.261467 1.023799,-2.285266 2.285267,-2.285266 h 11.225231 c 5.15442,0 10.022038,2.50351 13.018022,6.698117 l 2.656623,3.719272 -2.808593,3.931801 -3.567302,-4.994451 c -2.140152,-2.995985 -5.616043,-4.784206 -9.29875,-4.784206 z m 49.807391,28.092786 -9.141067,-9.141068 c -0.892397,-0.892397 -2.338971,-0.892397 -3.231367,0 -0.892398,0.892397 -0.892398,2.338971 0,3.231367 l 5.240117,5.240118 h -5.708598 c -3.682707,0 -7.158598,-1.788222 -9.29875,-4.785349 l -3.567301,-4.994451 -2.808594,3.931801 2.656623,3.719273 c 2.995985,4.19575 7.863603,6.69926 13.018022,6.69926 h 5.708598 l -5.240117,5.240116 c -0.892398,0.892397 -0.892398,2.338971 0,3.231367 0.446769,0.44677 1.030655,0.669584 1.615684,0.669584 0.585027,0 1.168913,-0.222814 1.615683,-0.669584 l 9.141067,-9.141067 c 0.892397,-0.892396 0.892397,-2.33897 0,-3.231367 z m 0,-31.993736 -9.141067,-9.141068 c -0.892397,-0.892397 -2.338971,-0.892397 -3.231367,0 -0.892398,0.892397 -0.892398,2.338971 0,3.231367 l 5.240117,5.240118 h -5.708598 c -5.154419,0 -10.022037,2.50351 -13.019164,6.699259 L 39.845266,63.298175 c -2.141295,2.997127 -5.617186,4.785349 -9.299893,4.785349 H 19.320142 c -1.261468,0 -2.285267,1.023799 -2.285267,2.285266 0,1.261468 1.023799,2.285268 2.285267,2.285268 h 11.225231 c 5.15442,0 10.022038,-2.50351 13.019164,-6.69926 L 58.211956,45.446813 c 2.141295,-2.998271 5.617186,-4.786492 9.299893,-4.786492 h 5.708598 l -5.240117,5.240117 c -0.892398,0.892397 -0.892398,2.338971 0,3.231367 0.446769,0.44677 1.030655,0.669584 1.615684,0.669584 0.585027,0 1.168913,-0.222814 1.615683,-0.669584 l 9.141067,-9.141068 c 0.892397,-0.892396 0.892397,-2.33897 0,-3.231366 z"
         inkscape:connector-curvature="0"
         style="stroke-width:1.14263356" />
      <text
         id="text3806"
         font-weight="bold"
         font-size="5px"
         y="115"
         x="0"
         style="font-weight:bold;font-size:5px;font-family:'Helvetica Neue', Helvetica, Arial-Unicode, Arial, Sans-serif;fill:#000000" />
    </g>
  </g>
</svg>
