<?xml version="1.0" encoding="UTF-8" standalone="no"?>
<!-- Created with Inkscape (http://www.inkscape.org/) -->

<svg
   xmlns:dc="http://purl.org/dc/elements/1.1/"
   xmlns:cc="http://creativecommons.org/ns#"
   xmlns:rdf="http://www.w3.org/1999/02/22-rdf-syntax-ns#"
   xmlns:svg="http://www.w3.org/2000/svg"
   xmlns="http://www.w3.org/2000/svg"
   xmlns:sodipodi="http://sodipodi.sourceforge.net/DTD/sodipodi-0.dtd"
   xmlns:inkscape="http://www.inkscape.org/namespaces/inkscape"
   width="32mm"
   height="30mm"
   viewBox="0 0 32 30"
   version="1.1"
   id="svg8"
   inkscape:version="0.92.5 (2060ec1f9f, 2020-04-08)"
   sodipodi:docname="volume_high.svg">
  <defs
     id="defs2" />
  <sodipodi:namedview
     id="base"
     pagecolor="#ffffff"
     bordercolor="#666666"
     borderopacity="1.0"
     inkscape:pageopacity="0.0"
     inkscape:pageshadow="2"
     inkscape:zoom="2.8"
     inkscape:cx="52.414309"
     inkscape:cy="42.236986"
     inkscape:document-units="mm"
     inkscape:current-layer="g970"
     showgrid="false"
     inkscape:window-width="1848"
     inkscape:window-height="1016"
     inkscape:window-x="1992"
     inkscape:window-y="27"
     inkscape:window-maximized="1" />
  <metadata
     id="metadata5">
    <rdf:RDF>
      <cc:Work
         rdf:about="">
        <dc:format>image/svg+xml</dc:format>
        <dc:type
           rdf:resource="http://purl.org/dc/dcmitype/StillImage" />
        <dc:title></dc:title>
      </cc:Work>
    </rdf:RDF>
  </metadata>
  <g
     inkscape:label="Layer 1"
     inkscape:groupmode="layer"
     id="layer1"
     transform="translate(0,-267)">
    <g
       style="fill:none"
       id="g970"
       transform="matrix(1.3620734,0,0,1.3620734,-1.4797014,267.15214)">
      <g
         style="fill:none"
         id="g954"
         transform="matrix(0.9712045,0,0,0.97133051,0.92717911,-0.69326499)">
        <path
           id="path941"
           style="stroke-width:1.82727969;stroke-linecap:round;stroke-linejoin:round;stroke-miterlimit:4;stroke-dasharray:none"
           d="M 21.227909,3.1501863 C 22.60494,5.508728 23.440363,8.6067602 23.440363,12 c 0,3.39324 -0.835423,6.491338 -2.212454,8.849814 M 17.304497,5.5357491 c 1.520658,1.7228348 2.095502,3.9857429 2.095502,6.4643869 0,2.4784 -0.574844,4.741552 -2.095502,6.464265 M 7.5388003,7.9913982 H 2.1544659 c -0.594732,0 -1.0768668,0.4480164 -1.0768668,1.000662 v 6.0039718 c 0,0.552665 0.4821348,1.000662 1.0768668,1.000662 h 5.3843344 l 6.4612017,5.003309 V 2.9880885 Z" />
      </g>
    </g>
  </g>
</svg>
