<?xml version="1.0" encoding="UTF-8" standalone="no"?>
<!-- Created with Inkscape (http://www.inkscape.org/) -->

<svg
   xmlns:dc="http://purl.org/dc/elements/1.1/"
   xmlns:cc="http://creativecommons.org/ns#"
   xmlns:rdf="http://www.w3.org/1999/02/22-rdf-syntax-ns#"
   xmlns:svg="http://www.w3.org/2000/svg"
   xmlns="http://www.w3.org/2000/svg"
   xmlns:sodipodi="http://sodipodi.sourceforge.net/DTD/sodipodi-0.dtd"
   xmlns:inkscape="http://www.inkscape.org/namespaces/inkscape"
   width="32mm"
   height="32mm"
   viewBox="0 0 32 32"
   version="1.1"
   id="svg8"
   inkscape:version="0.92.5 (2060ec1f9f, 2020-04-08)"
   sodipodi:docname="heart_unlike.svg">
  <defs
     id="defs2" />
  <sodipodi:namedview
     id="base"
     pagecolor="#ffffff"
     bordercolor="#666666"
     borderopacity="1.0"
     inkscape:pageopacity="0.0"
     inkscape:pageshadow="2"
     inkscape:zoom="1.979899"
     inkscape:cx="48.6618"
     inkscape:cy="55.18007"
     inkscape:document-units="mm"
     inkscape:current-layer="layer1"
     showgrid="false"
     inkscape:window-width="1848"
     inkscape:window-height="1016"
     inkscape:window-x="1992"
     inkscape:window-y="27"
     inkscape:window-maximized="1" />
  <metadata
     id="metadata5">
    <rdf:RDF>
      <cc:Work
         rdf:about="">
        <dc:format>image/svg+xml</dc:format>
        <dc:type
           rdf:resource="http://purl.org/dc/dcmitype/StillImage" />
        <dc:title></dc:title>
      </cc:Work>
    </rdf:RDF>
  </metadata>
  <g
     inkscape:label="Layer 1"
     inkscape:groupmode="layer"
     id="layer1"
     transform="translate(0,-265)">
    <g
       id="g71"
       transform="matrix(0.06525285,0,0,0.06880734,0,264.12844)">
      <g
         id="g14">
	<g
   id="g12">
		<path
   id="path10"
   d="m 222.5,453.7 c 6.1,6.1 14.3,9.5 22.9,9.5 8.5,0 16.9,-3.5 22.9,-9.5 L 448,274 c 27.3,-27.3 42.3,-63.6 42.4,-102.1 0,-38.6 -15,-74.9 -42.3,-102.2 C 420.8,42.4 384.6,27.4 346,27.4 c -37.9,0 -73.6,14.5 -100.7,40.9 -27.2,-26.5 -63,-41.1 -101,-41.1 -38.5,0 -74.7,15 -102,42.2 C 15,96.7 0,133 0,171.6 0,210.1 15.1,246.4 42.4,273.7 Z M 59.7,86.8 c 22.6,-22.6 52.7,-35.1 84.7,-35.1 32,0 62.2,12.5 84.9,35.2 l 7.4,7.4 c 2.3,2.3 5.4,3.6 8.7,3.6 v 0 c 3.2,0 6.4,-1.3 8.7,-3.6 l 7.2,-7.2 c 22.7,-22.7 52.8,-35.2 84.9,-35.2 32,0 62.1,12.5 84.7,35.1 22.7,22.7 35.1,52.8 35.1,84.8 0,32 -12.5,62.1 -35.2,84.8 L 251,436.4 c -2.9,2.9 -8.2,2.9 -11.2,0 l -180,-180 C 37.1,233.7 24.6,203.6 24.6,171.6 c 0,-32 12.5,-62.1 35.1,-84.8 z"
   inkscape:connector-curvature="0" />

	</g>

</g>
    </g>
  </g>
</svg>
