<?xml version="1.0" encoding="UTF-8" standalone="no"?>
<!-- Created with Inkscape (http://www.inkscape.org/) -->

<svg stroke="#ffffff" xmlns:dc="http://purl.org/dc/elements/1.1/"
   xmlns:cc="http://creativecommons.org/ns#"
   xmlns:rdf="http://www.w3.org/1999/02/22-rdf-syntax-ns#"
   xmlns:svg="http://www.w3.org/2000/svg" xmlns="http://www.w3.org/2000/svg"
   xmlns:sodipodi="http://sodipodi.sourceforge.net/DTD/sodipodi-0.dtd"
   xmlns:inkscape="http://www.inkscape.org/namespaces/inkscape" width="32mm" height="32mm"
   viewBox="0 0 32 32" version="1.1" id="svg8"
   inkscape:version="0.92.5 (2060ec1f9f, 2020-04-08)"
   sodipodi:docname="shuffle_button3.svg">
   <defs id="defs2" />
   <sodipodi:namedview id="base" pagecolor="#ffffff" bordercolor="#666666"
      borderopacity="1.0" inkscape:pageopacity="0.0" inkscape:pageshadow="2"
      inkscape:zoom="2.8" inkscape:cx="21.162531" inkscape:cy="100.07766"
      inkscape:document-units="mm" inkscape:current-layer="layer1" showgrid="false"
      inkscape:window-width="1920" inkscape:window-height="1043" inkscape:window-x="0"
      inkscape:window-y="0" inkscape:window-maximized="1" />
   <metadata id="metadata5">
      <rdf:RDF>
            <cc:Work rdf:about="">
               <dc:format>image/svg+xml</dc:format>
               <dc:type rdf:resource="http://purl.org/dc/dcmitype/StillImage" />
               <dc:title></dc:title>
            </cc:Work>
      </rdf:RDF>
   </metadata>
   <g inkscape:label="Layer 1" inkscape:groupmode="layer" id="layer1"
      transform="translate(0,-265)">
      <path id="path43"
            style="stroke-width:2.45942402px;stroke-linecap:round;stroke-linejoin:round"
            d="m 28.310081,273.91887 h -4.089412 a 6.1506488,6.146472 0 0 0 -5.11734,2.73672 l -0.634286,0.95117 M 1.2472264,273.91887 h 6.5496722 a 6.1506488,6.146472 0 0 1 5.1173394,2.73672 l 6.189091,9.2781 a 6.1506488,6.146472 0 0 0 5.11734,2.73672 h 4.089412 m -27.0628546,0 h 6.5496722 a 6.1506488,6.146472 0 0 0 5.1173394,-2.73672 l 3.094546,-4.63905 m 11.071167,-11.06365 3.69039,3.68788 -3.69039,3.68789 m 0,7.37576 3.69039,3.68789 -3.69039,3.68788" />
   </g>
</svg>