<?xml version="1.0" encoding="UTF-8" standalone="no"?>
<!-- Created with Inkscape (http://www.inkscape.org/) -->

<svg
   stroke="#ffffff"
   width="32mm"
   height="32mm"
   viewBox="0 0 32 32"
   version="1.1"
   id="svg8"
   inkscape:version="1.1.1 (eb90963e84, 2021-10-02)"
   sodipodi:docname="skip_backward.svg"
   xmlns:inkscape="http://www.inkscape.org/namespaces/inkscape"
   xmlns:sodipodi="http://sodipodi.sourceforge.net/DTD/sodipodi-0.dtd"
   xmlns="http://www.w3.org/2000/svg"
   xmlns:svg="http://www.w3.org/2000/svg"
   xmlns:rdf="http://www.w3.org/1999/02/22-rdf-syntax-ns#"
   xmlns:cc="http://creativecommons.org/ns#"
   xmlns:dc="http://purl.org/dc/elements/1.1/">
  <defs
     id="defs2">
    <marker
       style="overflow:visible;"
       id="Arrow1Lend"
       refX="0.0"
       refY="0.0"
       orient="auto"
       inkscape:stockid="Arrow1Lend"
       inkscape:isstock="true">
      <path
         transform="scale(0.8) rotate(180) translate(12.5,0)"
         style="fill-rule:evenodd;fill:context-stroke;stroke:context-stroke;stroke-width:1.0pt;"
         d="M 0.0,0.0 L 5.0,-5.0 L -12.5,0.0 L 5.0,5.0 L 0.0,0.0 z "
         id="path55529" />
    </marker>
    <marker
       style="overflow:visible"
       id="Arrow1Lstart"
       refX="0.0"
       refY="0.0"
       orient="auto"
       inkscape:stockid="Arrow1Lstart"
       inkscape:isstock="true">
      <path
         transform="scale(0.8) translate(12.5,0)"
         style="fill-rule:evenodd;fill:context-stroke;stroke:context-stroke;stroke-width:1.0pt"
         d="M 0.0,0.0 L 5.0,-5.0 L -12.5,0.0 L 5.0,5.0 L 0.0,0.0 z "
         id="path55526" />
    </marker>
  </defs>
  <sodipodi:namedview
     id="base"
     pagecolor="#ffffff"
     bordercolor="#666666"
     borderopacity="1.0"
     inkscape:pageopacity="0.0"
     inkscape:pageshadow="2"
     inkscape:zoom="1.8101934"
     inkscape:cx="42.536892"
     inkscape:cy="69.882038"
     inkscape:document-units="mm"
     inkscape:current-layer="layer1"
     showgrid="false"
     inkscape:window-width="1848"
     inkscape:window-height="1016"
     inkscape:window-x="1992"
     inkscape:window-y="27"
     inkscape:window-maximized="1"
     inkscape:pagecheckerboard="0" />
  <metadata
     id="metadata5">
    <rdf:RDF>
      <cc:Work
         rdf:about="">
        <dc:format>image/svg+xml</dc:format>
        <dc:type
           rdf:resource="http://purl.org/dc/dcmitype/StillImage" />
      </cc:Work>
    </rdf:RDF>
  </metadata>
  <g
     inkscape:label="Layer 1"
     inkscape:groupmode="layer"
     id="layer1"
     transform="translate(0,-265)">
    <path
       id="path57096-6"
       style="stroke-width:0;stroke-miterlimit:4;stroke-dasharray:none"
       d="m 8.5218888,280.45291 c -0.6387878,0.63879 -1.5232822,0.52647 -2.0427413,0 l -6.00310305,-4.79843 c -0.643634,-0.51447 -0.62575349,-2.19495 0,-2.73102 l 6.00310305,-5.14288 c 0.6257428,-0.53608 1.4601095,-0.2388 2.0427413,0.34383 0.5826425,0.58264 0.6557871,1.54387 0,2.04274 l -3.5953372,2.73512 H 21.038904 c 6.058024,0 10.9578,4.89275 10.9578,10.95779 0,6.05802 -4.892749,10.9578 -10.9578,10.9578 0,0 -1.083071,-0.029 -1.083071,-1.31269 0,-1.28653 1.083071,-1.4601 1.083071,-1.4601 4.457535,0 8.107792,-3.65026 8.107792,-8.1078 0,-4.45752 -3.650257,-8.10778 -8.107792,-8.10778 H 5.0739584 l 3.4479304,2.58769 c 0.5826425,0.57563 0.5826425,1.45309 0,2.03573 z m 10.7543382,9.91422 q 0,2.04632 -1.278949,3.26132 -1.269817,1.20587 -3.489709,1.20587 -1.936698,0 -3.106025,-0.86786 -1.160191,-0.877 -1.4342516,-2.5305 l 2.5670366,-0.21011 q 0.200977,0.82218 0.712557,1.19673 0.51158,0.37455 1.288088,0.37455 0.959213,0 1.525606,-0.61207 0.575526,-0.61207 0.575526,-1.76312 0,-1.01403 -0.538984,-1.61696 -0.538989,-0.61207 -1.507335,-0.61207 -1.06884,0 -1.744855,0.83132 h -2.50309 l 0.447633,-7.24434 h 7.737653 v 1.90929 h -5.408135 l -0.210114,3.25218 q 0.931809,-0.82218 2.329518,-0.82218 1.836205,0 2.932449,1.14192 1.105381,1.14192 1.105381,3.10603 z m -19.11117728,4.28448 v -1.90929 H 3.3532911 v -8.77908 l -3.08775209,1.92756 v -2.01892 l 3.22478259,-2.09199 h 2.430007 v 10.96243 h 2.9507199 v 1.90929 z" />
  </g>
</svg>
